<svg version="1.1" xmlns="http://www.w3.org/2000/svg" xmlns:xlink="http://www.w3.org/1999/xlink" width="800" height="800"><defs/><g transform="scale(2,2)"><g id="background-31acd61d"><rect fill="white" stroke="none" x="0" y="0" width="400" height="400" class="dcg-svg-background"/></g><g id="background-images-31acd61d"/><g id="graphpaper-31acd61d"><g id="axis-31acd61d"><path fill="none" stroke="rgb(0,0,0)" class="dcg-svg-axis-line" paint-order="fill stroke markers" d=" M 200 3 L 200 400" stroke-opacity="0.9" stroke-miterlimit="10" stroke-width="1.5" stroke-dasharray=""/><g class="dcg-svg-axis-line"><path fill="rgb(0,0,0)" stroke="rgb(0,0,0)" class="dcg-svg-axis-line" paint-order="stroke fill markers" d=" M 200 1.5 L 203.10582854123024 13.09110991546882 L 196.89417145876976 13.09110991546882 L 200 1.5 L 203.10582854123024 13.09110991546882" stroke-opacity="0.9" stroke-linejoin="round" stroke-miterlimit="10" stroke-width="1.5" stroke-dasharray="" fill-opacity="0.9"/></g><path fill="none" stroke="rgb(0,0,0)" class="dcg-svg-axis-line" paint-order="fill stroke markers" d=" M 0 200 L 397 200" stroke-opacity="0.9" stroke-miterlimit="10" stroke-width="1.5" stroke-dasharray=""/><g class="dcg-svg-axis-line"><path fill="rgb(0,0,0)" stroke="rgb(0,0,0)" class="dcg-svg-axis-line" paint-order="stroke fill markers" d=" M 398.5 200 L 386.9088900845312 203.10582854123027 L 386.9088900845312 196.89417145876976 L 398.5 200 L 386.9088900845312 203.10582854123027" stroke-opacity="0.9" stroke-linejoin="round" stroke-miterlimit="10" stroke-width="1.5" stroke-dasharray="" fill-opacity="0.9"/></g><g><g><path fill="none" stroke="rgb(0,0,0)" class="dcg-svg-tickmark" paint-order="fill stroke markers" d="" stroke-opacity="0.9" stroke-miterlimit="2" stroke-width="1.5" stroke-dasharray=""/></g></g><g class="dcg-svg-axis-label"><text fill="none" stroke="#ffffff" font-family="Arial" font-size="17px" font-style="normal" font-weight="normal" text-decoration="normal" x="318.8427734375" y="215" text-anchor="start" stroke-miterlimit="2" stroke-width="3" stroke-dasharray="">deltaPos</text><text fill="#000000" stroke="none" font-family="Arial" font-size="17px" font-style="normal" font-weight="normal" text-decoration="normal" x="318.8427734375" y="215" text-anchor="start">deltaPos</text></g><g class="dcg-svg-axis-label" transform="translate(192,58.45458984375) rotate(-90,0,0)"><text fill="none" stroke="#ffffff" font-family="Arial" font-size="17px" font-style="normal" font-weight="normal" text-decoration="normal" x="0" y="0" text-anchor="start" stroke-miterlimit="2" stroke-width="3" stroke-dasharray="">Force</text><text fill="#000000" stroke="none" font-family="Arial" font-size="17px" font-style="normal" font-weight="normal" text-decoration="normal" x="0" y="0" text-anchor="start">Force</text></g></g></g><g id="expressions-31acd61d"><path fill="#c74440" stroke="none" paint-order="stroke fill markers" d="" fill-opacity="0.4"/><g><path fill="none" stroke="#c74440" class="dcg-svg-curve" paint-order="fill stroke markers" d=" M 21.665354904239983 403 L 21.665354904239983 403 L 27.13671875 391.5123586654663 L 33.875 377.86777343750003 L 40.515625 364.9095794677735 L 47.05859375 352.61637630462644 L 53.6015625 340.79408798217776 L 60.046875 329.608676147461 L 66.39453125 319.03936977386473 L 72.7421875 308.91328353881835 L 78.9921875 299.3760276794434 L 85.14453125 290.4074605941772 L 91.296875 281.8552581787109 L 97.3515625 273.8453086853027 L 103.40625 266.2386108398438 L 109.4609375 259.035164642334 L 115.41796875 252.3414510726929 L 121.375 246.0380859375 L 127.33203125 240.12506923675537 L 133.2890625 234.60240097045897 L 139.24609375 229.47008113861085 L 145.30078125 224.65362453460693 L 151.35546875 220.24041957855223 L 157.3125 216.29194335937498 L 163.07421875 212.8442861557007 L 168.640625 209.86031188964844 L 174.109375 207.26060485839844 L 179.48046875 205.0275411605835 L 184.65625 203.17591552734373 L 189.734375 201.64561462402344 L 194.8125 200.398974609375 L 199.79296875 199.4508951187134 L 204.7734375 198.47165908813474 L 209.75390625 197.2195672988892 L 214.83203125 195.66199131011962 L 220.0078125 193.78256607055664 L 225.28125 191.56461181640626 L 230.65234375 188.9911340713501 L 236.12109375 186.0448236465454 L 241.6875 182.708056640625 L 247.44921875 178.89522800445556 L 253.40625 174.56920166015627 L 259.4609375 169.77225723266605 L 265.515625 164.57206115722656 L 271.47265625 159.06219120025636 L 277.4296875 153.1619728088379 L 283.38671875 146.8714059829712 L 289.34375 140.19049072265625 L 295.30078125 133.11922702789303 L 301.35546875 125.53204135894777 L 307.41015625 117.54160404205322 L 313.46484375 109.14791507720946 L 319.6171875 100.20578384399414 L 325.76953125 90.84728794097902 L 332.01953125 80.91391391754149 L 338.3671875 70.38552017211913 L 344.71484375 59.41390628814696 L 351.16015625 47.819997596740734 L 357.703125 35.58302307128906 L 364.24609375 22.87513370513915 L 370.88671875 9.496064186096135 L 376.8705226581695 -3" stroke-linecap="round" stroke-linejoin="round" stroke-miterlimit="10" stroke-width="2.5" stroke-opacity="0.7" stroke-dasharray=""/></g><path fill="#388c46" stroke="none" paint-order="stroke fill markers" d="" fill-opacity="0.4"/><g><path fill="none" stroke="#388c46" class="dcg-svg-curve" paint-order="fill stroke markers" d=" M -0.5 232.70000000000002 L 10.351504014617742 230.89865033357347 M 17.25700656937449 229.75233690948386 L 28.10851058399223 227.9509872430573 M 35.01401313874898 226.8046738189677 L 45.865517153366724 225.00332415254115 M 52.77101970812347 223.85701072845154 L 63.62252372274121 222.055661062025 M 70.52802627749796 220.90934763793538 L 81.3795302921157 219.10799797150884 M 88.28503284687245 217.96168454741922 L 99.1365368614902 216.16033488099268 M 106.04203941624695 215.01402145690307 L 116.8935434308647 213.21267179047652 M 123.79904598562143 212.0663583663869 L 134.65055000023918 210.26500869996036 M 141.55605255499592 209.11869527587075 L 152.40755656961366 207.3173456094442 M 159.3130591243704 206.1710321853546 L 170.16456313898814 204.36968251892804 M 177.07006569374488 203.22336909483843 L 187.92156970836263 201.4220194284119 M 194.82707226311936 200.27570600432227 L 205.6785762777371 198.47435633789573 M 212.58407883249384 197.32804291380612 L 223.4355828471116 195.52669324737957 M 230.34108540186833 194.38037982328996 L 241.19258941648607 192.5790301568634 M 248.0980919712428 191.4327167327738 L 258.9495959858605 189.63136706634725 M 265.8550985406173 188.48505364225764 L 276.706602555235 186.6837039758311 M 283.6121051099918 185.53739055174148 L 294.46360912460955 183.73604088531494 M 301.3691116793663 182.5897274612253 L 312.22061569398403 180.78837779479875 M 319.1261182487408 179.64206437070914 L 329.9776222633585 177.8407147042826 M 336.8831248181153 176.69440128019295 L 347.734628832733 174.8930516137664 M 354.64013138748976 173.74673818967676 L 365.4916354021075 171.94538852325022 M 372.39713795686424 170.79907509916058 L 383.24864197148196 168.99772543273403 M 390.1541445262387 167.8514120086444 L 399.5 166.3" stroke-linecap="round" stroke-linejoin="round" stroke-miterlimit="10" stroke-width="2.5" stroke-opacity="0.7" stroke-dasharray=""/></g></g></g></svg>