<svg version="1.1" xmlns="http://www.w3.org/2000/svg" xmlns:xlink="http://www.w3.org/1999/xlink" width="800" height="800"><defs/><g transform="scale(2,2)"><g id="background-2277ddde"><rect fill="white" stroke="none" x="0" y="0" width="400" height="400" class="dcg-svg-background"/></g><g id="background-images-2277ddde"/><g id="graphpaper-2277ddde"><g id="axis-2277ddde"><path fill="none" stroke="rgb(0,0,0)" class="dcg-svg-axis-line" paint-order="fill stroke markers" d=" M 200 3 L 200 400" stroke-opacity="0.9" stroke-miterlimit="10" stroke-width="1.5" stroke-dasharray=""/><g class="dcg-svg-axis-line"><path fill="rgb(0,0,0)" stroke="rgb(0,0,0)" class="dcg-svg-axis-line" paint-order="stroke fill markers" d=" M 200 1.5 L 203.10582854123024 13.09110991546882 L 196.89417145876976 13.09110991546882 L 200 1.5 L 203.10582854123024 13.09110991546882" stroke-opacity="0.9" stroke-linejoin="round" stroke-miterlimit="10" stroke-width="1.5" stroke-dasharray="" fill-opacity="0.9"/></g><path fill="none" stroke="rgb(0,0,0)" class="dcg-svg-axis-line" paint-order="fill stroke markers" d=" M 0 200 L 397 200" stroke-opacity="0.9" stroke-miterlimit="10" stroke-width="1.5" stroke-dasharray=""/><g class="dcg-svg-axis-line"><path fill="rgb(0,0,0)" stroke="rgb(0,0,0)" class="dcg-svg-axis-line" paint-order="stroke fill markers" d=" M 398.5 200 L 386.9088900845312 203.10582854123027 L 386.9088900845312 196.89417145876976 L 398.5 200 L 386.9088900845312 203.10582854123027" stroke-opacity="0.9" stroke-linejoin="round" stroke-miterlimit="10" stroke-width="1.5" stroke-dasharray="" fill-opacity="0.9"/></g><g><g><path fill="none" stroke="rgb(0,0,0)" class="dcg-svg-tickmark" paint-order="fill stroke markers" d="" stroke-opacity="0.9" stroke-miterlimit="2" stroke-width="1.5" stroke-dasharray=""/></g></g><g class="dcg-svg-axis-label"><text fill="none" stroke="#ffffff" font-family="Arial" font-size="17px" font-style="normal" font-weight="normal" text-decoration="normal" x="318.8427734375" y="215" text-anchor="start" stroke-miterlimit="2" stroke-width="3" stroke-dasharray="">deltaPos</text><text fill="#000000" stroke="none" font-family="Arial" font-size="17px" font-style="normal" font-weight="normal" text-decoration="normal" x="318.8427734375" y="215" text-anchor="start">deltaPos</text></g><g class="dcg-svg-axis-label" transform="translate(192,58.45458984375) rotate(-90,0,0)"><text fill="none" stroke="#ffffff" font-family="Arial" font-size="17px" font-style="normal" font-weight="normal" text-decoration="normal" x="0" y="0" text-anchor="start" stroke-miterlimit="2" stroke-width="3" stroke-dasharray="">Force</text><text fill="#000000" stroke="none" font-family="Arial" font-size="17px" font-style="normal" font-weight="normal" text-decoration="normal" x="0" y="0" text-anchor="start">Force</text></g></g></g><g id="expressions-2277ddde"><path fill="#c74440" stroke="none" paint-order="stroke fill markers" d="" fill-opacity="0.4"/><g><path fill="none" stroke="#c74440" class="dcg-svg-curve" paint-order="fill stroke markers" d=" M -0.5 199.5 L 10.49999770482254 199.492894094087 M 17.499996244255065 199.48837215396057 L 28.499993949077606 199.48126624804758 M 35.49999248851013 199.47674430792114 L 46.49999019333267 199.46963840200814 M 53.499988732765196 199.4651164618817 L 64.49998643758774 199.4580105559687 M 71.49998497702026 199.45348861584228 L 82.49998268184281 199.44638270992928 M 89.49998122127533 199.44186076980284 L 100.49997892609787 199.43475486388985 M 107.49997746553039 199.43023292376338 L 118.49997517035294 199.4231270178504 M 125.49997370978546 199.41860507772395 L 136.499971414608 199.41149917181096 M 143.49996995404055 199.4069772316845 L 154.49996765886308 199.3998713257715 M 161.4999661982956 199.39534938564503 L 172.49996390311813 199.38824347973204 M 179.49996244255067 199.3837215396056 L 190.4999601473732 199.3766156336926 M 197.49995868680574 199.37209369356614 L 200.28125 199.37029700279234 M 200.28125 199.37029700279234 L 208.37725383094403 197.95541718143062 M 215.27274471373983 196.75034229359994 L 215.515625 196.70789586901665 M 215.515625 196.70789586901665 L 224.109375 194.93046496510507 M 224.109375 194.93046496510507 L 226.03076903216632 194.4614817903748 M 232.81562295246596 192.7431211606783 L 237.78125 191.3220815181732 M 237.78125 191.3220815181732 L 243.3179533098047 189.4801761946277 M 249.85590539551478 186.98183333607597 L 254.96875 184.74556641578673 M 254.96875 184.74556641578673 L 259.823888704069 182.33755446475266 M 265.93609156861385 178.92831670404493 L 270.69140625 175.9557895260863 M 270.69140625 175.9557895260863 L 275.1150921752115 172.87271196574275 M 280.67776584849986 168.62504099837474 L 281.04296875 168.34236543113366 M 281.04296875 168.34236543113366 L 286.0234375 164.0855313189328 M 286.0234375 164.0855313189328 L 288.93235721130714 161.3597959311589 M 293.90700563405295 156.4372181213903 L 295.49609375 154.81423829467968 M 295.49609375 154.81423829467968 L 299.98828125 149.8405427291058 M 299.98828125 149.8405427291058 L 301.2887086163454 148.28625469509666 M 305.72407601428324 142.8719602502594 L 308.875 138.8194122314453 M 308.875 138.8194122314453 L 312.31935140102723 134.07032663424695 M 316.2865177074514 128.30372884403042 L 317.46875 126.56106095314027 M 317.46875 126.56106095314027 L 321.765625 119.80253402590756 M 321.765625 119.80253402590756 L 322.2194031622768 119.04230188203297 M 325.8071376350708 113.0316312578242 L 326.0625 112.60381278991696 M 326.0625 112.60381278991696 L 330.359375 104.94942715764046 M 330.359375 104.94942715764046 L 331.1656278742892 103.42580498708188 M 334.4396662932959 97.2386673265099 L 334.55859375 97.01392330946402 M 334.55859375 97.01392330946402 L 338.85546875 88.41302961790933 M 338.85546875 88.41302961790933 L 339.33836760262636 87.39004356685894 M 342.32651162911816 81.05987806531465 L 343.15234375 79.31041286038237 M 343.15234375 79.31041286038237 L 346.84952920100017 71.0331831889494 M 349.60444213268397 64.5983329788802 L 351.74609375 59.53812979729844 M 351.74609375 59.53812979729844 L 353.79753420761494 54.4293805189632 M 356.39016785301095 47.927344739868 L 360.31069550368187 37.64972522266825 M 362.6981770600308 31.06946864767378 L 364.734375 25.454013329744328 M 364.734375 25.454013329744328 L 366.37335471214436 20.70194088060094 M 368.65570522305967 14.084473378200599 L 369.12890625 12.712470084708173 M 369.12890625 12.712470084708173 L 372.108418906377 3.640540346997369" stroke-linecap="round" stroke-linejoin="round" stroke-miterlimit="10" stroke-width="2.5" stroke-opacity="0.7" stroke-dasharray=""/></g><path fill="#fa7e19" stroke="none" paint-order="stroke fill markers" d="" fill-opacity="0.4"/><g><path fill="none" stroke="#fa7e19" class="dcg-svg-curve" paint-order="fill stroke markers" d=" M -0.5 199.5 L 10.499998866961668 199.49500732115848 M 17.499998145937276 199.4918301618957 L 28.499997012898945 199.4868374830542 M 35.49999629187455 199.4836603237914 L 46.49999515883622 199.4786676449499 M 53.49999443781183 199.47549048568712 L 64.4999933047735 199.4704978068456 M 71.4999925837491 199.46732064758282 L 82.49999145071078 199.4623279687413 M 89.49999072968639 199.45915080947853 L 100.49998959664805 199.454158130637 M 107.49998887562366 199.45098097137424 L 118.49998774258532 199.44598829253272 M 125.49998702156093 199.44281113326994 L 136.4999858885226 199.43781845442842 M 143.4999851674982 199.43464129516562 L 154.49998403445989 199.4296486163241 M 161.49998331343548 199.4264714570613 L 172.49998218039715 199.42147877821978 M 179.49998145937278 199.418301618957 L 190.49998032633442 199.41330894011546 M 197.49997960531005 199.41013178085268 L 199.59765625 199.40917968750003 M 199.59765625 199.40917968750003 L 206.11657517655382 193.34658508580497 M 211.24247678359907 188.57949659125288 L 219.2974650232416 181.0883575283853 M 224.42336663028686 176.3212690338332 L 232.4783548699294 168.83012997096563 M 237.60425647697465 164.06304147641353 L 245.6592447166172 156.57190241354596 M 250.78514632366245 151.80481391899386 L 258.840134563305 144.31367485612628 M 263.96603617035026 139.54658636157419 L 272.02102440999283 132.0554472987066 M 277.1469260170381 127.28835880415453 L 285.2019142566806 119.79721974128697 M 290.32781586372585 115.03013124673488 L 298.38280410336836 107.53899218386732 M 303.5087057104136 102.77190368931524 L 311.5636939500562 95.28076462644768 M 316.6895955571014 90.5136761318956 L 324.744583796744 83.02253706902803 M 329.87048540378925 78.25544857447595 L 337.92547364343176 70.76430951160839 M 343.051375250477 65.9972210170563 L 351.1063634901196 58.506081954188744 M 356.2322650971648 53.73899345963666 L 364.28725333680734 46.2478543967691 M 369.4131549438526 41.480765902217016 L 377.46814318349516 33.989626839349455 M 382.5940447905404 29.22253834479737 L 390.6490330301829 21.731399281929807 M 395.77493463722817 16.96431078737772 L 399.5 13.499999999999943" stroke-linecap="round" stroke-linejoin="round" stroke-miterlimit="10" stroke-width="2.5" stroke-opacity="0.7" stroke-dasharray=""/></g><path fill="#2d70b3" stroke="none" paint-order="stroke fill markers" d="" fill-opacity="0.4"/><g><path fill="none" stroke="#2d70b3" class="dcg-svg-curve" paint-order="fill stroke markers" d=" M -0.5 199.5 L -0.5 199.5 L 200.28125 199.37029700279234 L 215.515625 196.70789586901665 L 224.109375 194.93046496510507 L 231.3359375 193.16657053902748 L 237.78125 191.3220815181732 L 243.8359375 189.30785743668673 L 249.5 187.1375 L 254.96875 184.74556641578673 L 260.33984375 182.08165530459954 L 265.515625 179.1911485850811 L 270.69140625 175.9557895260863 L 275.8671875 172.34854088798164 L 281.04296875 168.34236543113366 L 286.0234375 164.0855313189328 L 290.80859375 159.60171223105863 L 295.49609375 154.81423829467968 L 299.98828125 149.8405427291058 L 304.48046875 144.47142065549272 L 308.875 138.8194122314453 L 313.171875 132.89486365914348 L 317.46875 126.56106095314027 L 321.765625 119.80253402590756 L 326.0625 112.60381278991696 L 330.359375 104.94942715764046 L 334.55859375 97.01392330946402 L 338.85546875 88.41302961790933 L 343.15234375 79.31041286038237 L 347.44921875 69.6906029493548 L 351.74609375 59.53812979729844 L 353.015625 56.73046875 L 399.5 13.499999999999943" stroke-linecap="round" stroke-linejoin="round" stroke-miterlimit="10" stroke-width="2.5" stroke-opacity="0.7" stroke-dasharray=""/></g><path fill="#388c46" stroke="none" paint-order="stroke fill markers" d="" fill-opacity="0.4"/><g><path fill="none" stroke="#388c46" class="dcg-svg-curve" paint-order="fill stroke markers" d=" M -0.5 199.5 L 10.499997705370975 199.49289494311637 M 17.499996245152502 199.48837354328134 L 28.499993950523475 199.4812684863977 M 35.499992490305004 199.47674708656268 L 46.49999019567598 199.46964202967905 M 53.49998873545751 199.46512062984402 L 64.49998644082848 199.4580155729604 M 71.49998498061001 199.45349417312536 L 82.49998268598098 199.44638911624173 M 89.49998122576251 199.4418677164067 L 100.49997893113348 199.43476265952307 M 107.49997747091501 199.43024125968805 L 118.49997517628599 199.42313620280441 M 125.49997371606752 199.4186148029694 L 136.4999714214385 199.41150974608576 M 143.49996996122002 199.40698834625073 L 154.499967666591 199.3998832893671 M 161.49996620637253 199.39536188953207 L 172.4999639117435 199.38825683264844 M 179.49996245152502 199.3837354328134 L 190.499960156896 199.37663037592978 M 197.49995869667754 199.37210897609475 L 200.28125 199.3703125 M 200.28125 199.3703125 L 208.3890085564629 198.02442457962718 M 215.29451111121963 196.87811115553757 L 226.14601512583738 195.07676148911102 M 233.05151768059412 193.9304480650214 L 243.90302169521186 192.12909839859486 M 250.8085242499686 190.98278497450525 L 261.66002826458634 189.1814353080787 M 268.5655308193431 188.0351218839891 L 279.4170348339608 186.23377221756255 M 286.3225373887176 185.08745879347293 L 297.1740414033353 183.2861091270464 M 304.0795439580921 182.13979570295677 L 314.9310479727098 180.33844603653023 M 321.83655052746656 179.19213261244062 L 332.6880545420843 177.39078294601407 M 339.59355709684104 176.24446952192446 L 350.4450611114588 174.4431198554979 M 357.3505636662156 173.29680643140827 L 368.2020676808333 171.49545676498172 M 375.10757023559006 170.34914334089208 L 385.9590742502078 168.54779367446554 M 392.86457680496454 167.4014802503759 L 399.5 166.3" stroke-linecap="round" stroke-linejoin="round" stroke-miterlimit="10" stroke-width="2.5" stroke-opacity="0.7" stroke-dasharray=""/></g></g></g></svg>