<svg version="1.1" xmlns="http://www.w3.org/2000/svg" xmlns:xlink="http://www.w3.org/1999/xlink" width="800" height="800"><defs/><g transform="scale(2,2)"><g id="background-a973c905"><rect fill="white" stroke="none" x="0" y="0" width="400" height="400" class="dcg-svg-background"/></g><g id="background-images-a973c905"/><g id="graphpaper-a973c905"><g id="axis-a973c905"><path fill="none" stroke="rgb(0,0,0)" class="dcg-svg-axis-line" paint-order="fill stroke markers" d=" M 200 3 L 200 400" stroke-opacity="0.9" stroke-miterlimit="10" stroke-width="1.5" stroke-dasharray=""/><g class="dcg-svg-axis-line"><path fill="rgb(0,0,0)" stroke="rgb(0,0,0)" class="dcg-svg-axis-line" paint-order="stroke fill markers" d=" M 200 1.5 L 203.10582854123024 13.09110991546882 L 196.89417145876976 13.09110991546882 L 200 1.5 L 203.10582854123024 13.09110991546882" stroke-opacity="0.9" stroke-linejoin="round" stroke-miterlimit="10" stroke-width="1.5" stroke-dasharray="" fill-opacity="0.9"/></g><path fill="none" stroke="rgb(0,0,0)" class="dcg-svg-axis-line" paint-order="fill stroke markers" d=" M 0 200 L 397 200" stroke-opacity="0.9" stroke-miterlimit="10" stroke-width="1.5" stroke-dasharray=""/><g class="dcg-svg-axis-line"><path fill="rgb(0,0,0)" stroke="rgb(0,0,0)" class="dcg-svg-axis-line" paint-order="stroke fill markers" d=" M 398.5 200 L 386.9088900845312 203.10582854123027 L 386.9088900845312 196.89417145876976 L 398.5 200 L 386.9088900845312 203.10582854123027" stroke-opacity="0.9" stroke-linejoin="round" stroke-miterlimit="10" stroke-width="1.5" stroke-dasharray="" fill-opacity="0.9"/></g><g><g><path fill="none" stroke="rgb(0,0,0)" class="dcg-svg-tickmark" paint-order="fill stroke markers" d="" stroke-opacity="0.9" stroke-miterlimit="2" stroke-width="1.5" stroke-dasharray=""/></g></g><g class="dcg-svg-axis-label"><text fill="none" stroke="#ffffff" font-family="Arial" font-size="17px" font-style="normal" font-weight="normal" text-decoration="normal" x="318.8427734375" y="215" text-anchor="start" stroke-miterlimit="2" stroke-width="3" stroke-dasharray="">deltaPos</text><text fill="#000000" stroke="none" font-family="Arial" font-size="17px" font-style="normal" font-weight="normal" text-decoration="normal" x="318.8427734375" y="215" text-anchor="start">deltaPos</text></g><g class="dcg-svg-axis-label" transform="translate(192,58.45458984375) rotate(-90,0,0)"><text fill="none" stroke="#ffffff" font-family="Arial" font-size="17px" font-style="normal" font-weight="normal" text-decoration="normal" x="0" y="0" text-anchor="start" stroke-miterlimit="2" stroke-width="3" stroke-dasharray="">Force</text><text fill="#000000" stroke="none" font-family="Arial" font-size="17px" font-style="normal" font-weight="normal" text-decoration="normal" x="0" y="0" text-anchor="start">Force</text></g></g></g><g id="expressions-a973c905"><path fill="#c74440" stroke="none" paint-order="stroke fill markers" d="" fill-opacity="0.4"/><g><path fill="none" stroke="#c74440" class="dcg-svg-curve" paint-order="fill stroke markers" d=" M 39.25904130227708 403 L 42.17068071611795 392.3923444661995 M 44.08532925069124 385.659426015434 L 46.86328125 376.0477912710048 M 46.86328125 376.0477912710048 L 47.15331617487657 375.0960278818246 M 49.19381563949675 368.4000319189462 L 50.96484375 362.5883190105669 M 50.96484375 362.5883190105669 L 52.47227563839716 357.9002850277968 M 54.61506630290667 351.2363186287151 L 54.96875 350.1363809108734 M 54.96875 350.1363809108734 L 58.13404387286899 340.81452418060553 M 60.456978002906084 334.2114568313725 L 62.9765625 327.1952623017132 M 62.9765625 327.1952623017132 L 64.23620257940966 323.8814795536875 M 66.72342159633187 317.3382585149436 L 66.8828125 316.91894284263253 M 66.8828125 316.91894284263253 L 70.7890625 307.2193430252373 M 70.7890625 307.2193430252373 L 70.82631329038112 307.1321833994238 M 73.57729983726486 300.6954083513998 L 74.6953125 298.0794755257666 M 74.6953125 298.0794755257666 L 78.06884867836558 290.65478335258393 M 81.08997000181922 284.34063275035464 L 82.5078125 281.41098818555474 M 82.5078125 281.41098818555474 L 86.05996930582663 274.52827066352853 M 89.42486235499923 268.3902879898782 L 90.125 267.1197052001953 M 90.125 267.1197052001953 L 93.93359375 260.6601762729697 M 93.93359375 260.6601762729697 L 95.02950768858302 258.92703940203324 M 98.82473883710598 253.04612323301035 L 101.6484375 248.89635856077075 M 101.6484375 248.89635856077075 L 105.1901644563795 244.07718764928066 M 109.53477961735473 238.58929943164415 L 113.46484375 234.05148518783972 M 113.46484375 234.05148518783972 L 116.89987696821917 230.42249140651546 M 121.9338891259897 225.56062951941684 L 125.76953125 222.22510525071993 M 125.76953125 222.22510525071993 L 130.1640625 218.80000009015203 M 130.1640625 218.80000009015203 L 130.4481409237634 218.60378254927016 M 136.26446171950386 214.7129948213977 L 139.24609375 212.90350120095536 M 139.24609375 212.90350120095536 L 143.73828125 210.52381525794044 M 143.73828125 210.52381525794044 L 145.94671268636554 209.51320460382064 M 152.40977153346716 206.83156300586407 L 153.015625 206.59527567029 M 153.015625 206.59527567029 L 157.80078125 205.02907372126356 M 157.80078125 205.02907372126356 L 162.78125 203.68750405311584 M 162.78125 203.68750405311584 L 162.93448039140452 203.65442834221258 M 169.7924735355336 202.2589058942537 L 173.71875 201.60302710533142 M 173.71875 201.60302710533142 L 179.96875 200.83046507835388 M 179.96875 200.83046507835388 L 180.68781500414153 200.76824959958114 M 187.66250794648948 200.1751755232492 L 197.546875 199.59801015257835 M 197.546875 199.59801015257835 L 198.6437951478234 199.53382441895678 M 205.63184202088368 199.12492235254894 L 213.7578125 198.6494352556765 M 213.7578125 198.6494352556765 L 216.6046729712956 198.37424647208783 M 223.5607372981117 197.60308878880727 L 227.4296875 197.06863122805953 M 227.4296875 197.06863122805953 L 232.99609375 196.0400396171026 M 232.99609375 196.0400396171026 L 234.39147254961114 195.71092445608636 M 241.1635226540123 193.9482540757191 L 243.0546875 193.39763927087188 M 243.0546875 193.39763927087188 L 247.7421875 191.75485375151038 M 247.7421875 191.75485375151038 L 251.49619142345298 190.19996377895276 M 257.792533552817 187.14866697434488 L 261.21875 185.24684500694275 M 261.21875 185.24684500694275 L 265.61328125 182.4678381071426 M 265.61328125 182.4678381071426 L 267.14395099669514 181.37313146774324 M 272.7185571602592 177.14412747591678 L 274.5 175.7109375 M 274.5 175.7109375 L 278.796875 171.85078677535057 M 278.796875 171.85078677535057 L 280.8810642171592 169.7808010186243 M 285.70923455559205 164.7148822304088 L 286.90234375 163.4150193776004 M 286.90234375 163.4150193776004 L 290.80859375 158.77455778000876 M 290.80859375 158.77455778000876 L 292.7510487766346 156.2695477424625 M 296.92681922761426 150.65296975798705 L 298.5234375 148.4268840663135 M 298.5234375 148.4268840663135 L 302.33203125 142.70738427573815 M 302.33203125 142.70738427573815 L 303.0638019310723 141.52677891719998 M 306.72125393490126 135.55880355038136 L 309.94921875 129.97730615129694 M 309.94921875 129.97730615129694 L 312.1148246964125 125.97311314601157 M 315.3610443013134 119.77203717176575 L 317.56640625 115.4208242339082 M 317.56640625 115.4208242339082 L 320.1971854050329 109.8931088900993 M 323.1155145287261 103.53095091617797 L 325.18359375 98.91197964129975 M 325.18359375 98.91197964129975 L 327.4925612622299 93.43999747267559 M 330.15440630457994 86.96624280753498 L 332.8984375 80.07247443124658 M 332.8984375 80.07247443124658 L 334.1579562203842 76.72116254013402 M 336.6205794665871 70.16864495166001 L 336.8046875 69.67877256497746 M 336.8046875 69.67877256497746 L 340.3132047336597 59.80704563941654 M 342.5651667496822 53.179322068910984 L 344.6171875 47.083068218082246 M 344.6171875 47.083068218082246 L 346.0054816361322 42.73150704711329 M 348.1330646591932 36.06266978114387 L 348.62109375 34.53295904723933 M 348.62109375 34.53295904723933 L 351.34202097188347 25.5413003667599 M 353.3350021134817 18.83117361829007 L 356.3734942366928 8.25915556981965 M 358.22978502732775 1.5098442144845965 L 359.4616835383747 -3" stroke-linecap="round" stroke-linejoin="round" stroke-miterlimit="10" stroke-width="2.5" stroke-opacity="0.7" stroke-dasharray=""/></g><path fill="#fa7e19" stroke="none" paint-order="stroke fill markers" d="" fill-opacity="0.4"/><g><path fill="none" stroke="#fa7e19" class="dcg-svg-curve" paint-order="fill stroke markers" d=" M -0.5 385.5 L 7.554988239642542 378.00886093713245 M 12.680889846687798 373.2417724425804 L 20.735878086330338 365.75063337971284 M 25.861779693375592 360.98354488516077 L 33.916767933018136 353.4924058222932 M 39.04266954006339 348.72531732774115 L 47.09765777970594 341.2341782648736 M 52.22355938675119 336.46708977032154 L 60.27854762639373 328.975950707454 M 65.40444923343898 324.2088622129019 L 73.45943747308152 316.7177231500344 M 78.58533908012677 311.9506346554823 L 86.64032731976931 304.45949559261476 M 91.76622892681456 299.6924070980627 L 99.8212171664571 292.20126803519514 M 104.94711877350235 287.4341795406431 L 113.0021070131449 279.9430404777755 M 118.12800862019014 275.17595198322346 L 126.18299685983268 267.68481292035585 M 131.30889846687793 262.9177244258038 L 139.36388670652047 255.4265853629362 M 144.48978831356573 250.6594968683841 L 152.54477655320827 243.16835780551654 M 157.67067816025352 238.40126931096444 L 165.72566639989606 230.91013024809686 M 170.8515680069413 226.14304175354476 L 178.90655624658385 218.6519026906772 M 184.0324578536291 213.8848141961251 L 192.08744609327164 206.39367513325752 M 197.2133477003169 201.62658663870542 L 205.26833593995943 194.13544757583784 M 210.39423754700468 189.36835908128575 L 218.44922578664722 181.87722001841817 M 223.57512739369247 177.11013152386607 L 231.630115633335 169.6189924609985 M 236.75601724038026 164.8519039664464 L 244.8110054800228 157.36076490357883 M 249.93690708706805 152.59367640902673 L 257.9918953267106 145.10253734615915 M 263.11779693375587 140.33544885160705 L 271.17278517339844 132.84430978873948 M 276.2986867804437 128.07722129418738 L 284.35367502008626 120.5860822313198 M 289.4795766271315 115.81899373676771 L 297.5345648667741 108.32785467390013 M 302.6604664738193 103.56076617934804 L 310.7154547134619 96.06962711648046 M 315.84135632050715 91.30253862192838 L 323.8963445601497 83.8113995590608 M 329.02224616719496 79.04431106450872 L 337.07723440683753 71.55317200164114 M 342.2031360138828 66.78608350708905 L 350.2581242535253 59.29494444422148 M 355.38402586057055 54.52785594966939 L 363.43901410021306 47.03671688680181 M 368.5649157072583 42.26962839224972 L 376.6199039469009 34.778489329382154 M 381.7458055539461 30.011400834830063 L 389.8007937935887 22.520261771962492 M 394.92669540063395 17.7531732774104 L 399.5 13.499999999999943" stroke-linecap="round" stroke-linejoin="round" stroke-miterlimit="10" stroke-width="2.5" stroke-opacity="0.7" stroke-dasharray=""/></g><path fill="#2d70b3" stroke="none" paint-order="stroke fill markers" d="" fill-opacity="0.4"/><g><path fill="none" stroke="#2d70b3" class="dcg-svg-curve" paint-order="fill stroke markers" d=" M -0.5 385.5 L -0.5 385.5 L 63.46484375 325.87860239250585 L 67.37109375 315.675301882904 L 71.27734375 306.04659759951755 L 75.18359375 296.97550221858546 L 79.08984375 288.44502841634676 L 82.99609375 280.43818886904046 L 86.8046875 273.1194626055658 L 90.61328125 266.2666227207519 L 94.421875 259.8639243543148 L 98.23046875 253.89562264597043 L 102.13671875 248.20903918286785 L 106.04296875 242.94586476450786 L 109.94921875 238.08911206712946 L 113.953125 233.51495352387428 L 117.95703125 229.33165100449696 L 122.05859375 225.43246618984267 L 126.35546875 221.7455060086213 L 130.75 218.3726806640625 L 135.33984375 215.2535619358532 L 139.83203125 212.57400726014748 L 144.32421875 210.23761669686064 L 148.9140625 208.1779928393662 L 153.6015625 206.38782529905438 L 158.38671875 204.85662228008732 L 163.3671875 203.5474190376699 L 168.640625 202.43887093663216 L 174.40234375 201.50580184115097 L 180.75 200.7506103515625 L 188.26953125 200.12880363548175 L 199.3046875 199.50976597890258 L 213.46484375 198.67239726288244 L 220.88671875 197.96601390978321 L 227.13671875 197.1155055477284 L 232.80078125 196.08085072645918 L 237.9765625 194.87045465782285 L 242.859375 193.45996615290642 L 247.546875 191.82913121581078 L 252.13671875 189.94092723866925 L 256.62890625 187.78707077773288 L 261.0234375 185.36229337379336 L 265.41796875 182.59889755910262 L 269.8125 179.4726963043213 L 274.3046875 175.87685095891356 L 278.6015625 172.03512935712934 L 282.703125 167.9800685942173 L 286.70703125 163.63692385191098 L 290.61328125 159.01587027171627 L 294.51953125 153.99858736479655 L 298.328125 148.70902267098427 L 302.13671875 143.0108990385197 L 305.9453125 136.88847160711884 L 309.75390625 130.32599551649764 L 313.5625 123.30772590637207 L 317.37109375 115.8179179164581 L 321.1796875 107.84082668647176 L 324.98828125 99.36070735612884 L 328.796875 90.36181506514549 L 332.703125 80.57679024338722 L 335.828125 72.71484375 L 399.5 13.499999999999943" stroke-linecap="round" stroke-linejoin="round" stroke-miterlimit="10" stroke-width="2.5" stroke-opacity="0.7" stroke-dasharray=""/></g></g></g></svg>