<svg version="1.1" xmlns="http://www.w3.org/2000/svg" xmlns:xlink="http://www.w3.org/1999/xlink" width="800" height="800"><defs/><g transform="scale(2,2)"><g id="background-7f206a5e"><rect fill="white" stroke="none" x="0" y="0" width="400" height="400" class="dcg-svg-background"/></g><g id="background-images-7f206a5e"/><g id="graphpaper-7f206a5e"><g id="axis-7f206a5e"><path fill="none" stroke="rgb(0,0,0)" class="dcg-svg-axis-line" paint-order="fill stroke markers" d=" M 200 3 L 200 400" stroke-opacity="0.9" stroke-miterlimit="10" stroke-width="1.5" stroke-dasharray=""/><g class="dcg-svg-axis-line"><path fill="rgb(0,0,0)" stroke="rgb(0,0,0)" class="dcg-svg-axis-line" paint-order="stroke fill markers" d=" M 200 1.5 L 203.10582854123024 13.09110991546882 L 196.89417145876976 13.09110991546882 L 200 1.5 L 203.10582854123024 13.09110991546882" stroke-opacity="0.9" stroke-linejoin="round" stroke-miterlimit="10" stroke-width="1.5" stroke-dasharray="" fill-opacity="0.9"/></g><path fill="none" stroke="rgb(0,0,0)" class="dcg-svg-axis-line" paint-order="fill stroke markers" d=" M 0 200 L 397 200" stroke-opacity="0.9" stroke-miterlimit="10" stroke-width="1.5" stroke-dasharray=""/><g class="dcg-svg-axis-line"><path fill="rgb(0,0,0)" stroke="rgb(0,0,0)" class="dcg-svg-axis-line" paint-order="stroke fill markers" d=" M 398.5 200 L 386.9088900845312 203.10582854123027 L 386.9088900845312 196.89417145876976 L 398.5 200 L 386.9088900845312 203.10582854123027" stroke-opacity="0.9" stroke-linejoin="round" stroke-miterlimit="10" stroke-width="1.5" stroke-dasharray="" fill-opacity="0.9"/></g><g><g><path fill="none" stroke="rgb(0,0,0)" class="dcg-svg-tickmark" paint-order="fill stroke markers" d="" stroke-opacity="0.9" stroke-miterlimit="2" stroke-width="1.5" stroke-dasharray=""/></g></g><g class="dcg-svg-axis-label"><text fill="none" stroke="#ffffff" font-family="Arial" font-size="17px" font-style="normal" font-weight="normal" text-decoration="normal" x="318.8427734375" y="215" text-anchor="start" stroke-miterlimit="2" stroke-width="3" stroke-dasharray="">deltaPos</text><text fill="#000000" stroke="none" font-family="Arial" font-size="17px" font-style="normal" font-weight="normal" text-decoration="normal" x="318.8427734375" y="215" text-anchor="start">deltaPos</text></g><g class="dcg-svg-axis-label" transform="translate(192,58.45458984375) rotate(-90,0,0)"><text fill="none" stroke="#ffffff" font-family="Arial" font-size="17px" font-style="normal" font-weight="normal" text-decoration="normal" x="0" y="0" text-anchor="start" stroke-miterlimit="2" stroke-width="3" stroke-dasharray="">Force</text><text fill="#000000" stroke="none" font-family="Arial" font-size="17px" font-style="normal" font-weight="normal" text-decoration="normal" x="0" y="0" text-anchor="start">Force</text></g></g></g><g id="expressions-7f206a5e"><path fill="#c74440" stroke="none" paint-order="stroke fill markers" d="" fill-opacity="0.4"/><g><path fill="none" stroke="#c74440" class="dcg-svg-curve" paint-order="fill stroke markers" d=" M 44.27344279434875 403 L 44.27344279434875 403 L 47.44921875 391.7185536741279 L 51.55078125 377.8862401605584 L 55.65234375 364.76326951039954 L 59.75390625 352.3299767729826 L 63.7578125 340.8391391970217 L 67.76171875 329.9684955402277 L 71.765625 319.6997523128986 L 75.76953125 310.0146160253323 L 79.67578125 301.1106453032233 L 83.58203125 292.72776073748247 L 87.48828125 284.8489750043489 L 91.39453125 277.4573007800616 L 95.30078125 270.53575074085967 L 99.20703125 264.06733756298195 L 103.11328125 258.0350739226676 L 107.01953125 252.42197249615563 L 111.0234375 247.08577874824405 L 115.02734375 242.1538265044801 L 119.12890625 237.50161139043047 L 123.328125 233.13767829537392 L 127.625 229.06835021972657 L 132.01953125 225.29755707466975 L 136.609375 221.75532299876215 L 141.39453125 218.4639783599414 L 146.1796875 215.55182131156323 L 151.0625 212.93869819641114 L 156.04296875 210.6121538556181 L 161.12109375 208.5560659918003 L 166.4921875 206.6875170253217 L 172.15625 205.01017117500305 L 178.40625 203.4473778247833 L 185.6328125 201.92861875072123 L 195.0078125 200.25000905767084 L 215.22265625 196.7054221992381 L 222.44921875 195.11631675949317 L 228.69921875 193.47041292777283 L 234.36328125 191.69990567425268 L 239.63671875 189.76602614661678 L 244.6171875 187.6482053183019 L 249.5 185.26250000000002 L 254.28515625 182.5951013554819 L 258.97265625 179.63569569038225 L 263.66015625 176.30385993914678 L 268.34765625 172.57024000631648 L 272.83984375 168.58800375266 L 277.13671875 164.38457402726632 L 281.3359375 159.88213983103634 L 285.4375 155.08753776550293 L 289.44140625 150.0098143768497 L 293.34765625 144.66005893694233 L 297.25390625 138.90218304367733 L 301.16015625 132.7191993732937 L 305.06640625 126.09412060203027 L 308.97265625 119.00995940612626 L 312.87890625 111.44972846182065 L 316.78515625 103.39644044535237 L 320.69140625 94.83310803296047 L 324.59765625 85.74274390088391 L 328.50390625 76.10836072536188 L 332.41015625 65.91297118263321 L 336.31640625 55.139587948936935 L 340.3203125 43.47924448624252 L 344.32421875 31.175505605246883 L 348.328125 18.210077816247917 L 352.4296875 4.223203810304426 L 354.44233893960126 -3" stroke-linecap="round" stroke-linejoin="round" stroke-miterlimit="10" stroke-width="2.5" stroke-opacity="0.7" stroke-dasharray=""/></g><path fill="#388c46" stroke="none" paint-order="stroke fill markers" d="" fill-opacity="0.4"/><g><path fill="none" stroke="#388c46" class="dcg-svg-curve" paint-order="fill stroke markers" d=" M -0.5 232.70000000000002 L 10.351504014617742 230.89865033357347 M 17.25700656937449 229.75233690948386 L 28.10851058399223 227.9509872430573 M 35.01401313874898 226.8046738189677 L 45.865517153366724 225.00332415254115 M 52.77101970812347 223.85701072845154 L 63.62252372274121 222.055661062025 M 70.52802627749796 220.90934763793538 L 81.3795302921157 219.10799797150884 M 88.28503284687245 217.96168454741922 L 99.1365368614902 216.16033488099268 M 106.04203941624695 215.01402145690307 L 116.8935434308647 213.21267179047652 M 123.79904598562143 212.0663583663869 L 134.65055000023918 210.26500869996036 M 141.55605255499592 209.11869527587075 L 152.40755656961366 207.3173456094442 M 159.3130591243704 206.1710321853546 L 170.16456313898814 204.36968251892804 M 177.07006569374488 203.22336909483843 L 187.92156970836263 201.4220194284119 M 194.82707226311936 200.27570600432227 L 205.6785762777371 198.47435633789573 M 212.58407883249384 197.32804291380612 L 223.4355828471116 195.52669324737957 M 230.34108540186833 194.38037982328996 L 241.19258941648607 192.5790301568634 M 248.0980919712428 191.4327167327738 L 258.9495959858605 189.63136706634725 M 265.8550985406173 188.48505364225764 L 276.706602555235 186.6837039758311 M 283.6121051099918 185.53739055174148 L 294.46360912460955 183.73604088531494 M 301.3691116793663 182.5897274612253 L 312.22061569398403 180.78837779479875 M 319.1261182487408 179.64206437070914 L 329.9776222633585 177.8407147042826 M 336.8831248181153 176.69440128019295 L 347.734628832733 174.8930516137664 M 354.64013138748976 173.74673818967676 L 365.4916354021075 171.94538852325022 M 372.39713795686424 170.79907509916058 L 383.24864197148196 168.99772543273403 M 390.1541445262387 167.8514120086444 L 399.5 166.3" stroke-linecap="round" stroke-linejoin="round" stroke-miterlimit="10" stroke-width="2.5" stroke-opacity="0.7" stroke-dasharray=""/></g></g></g></svg>