<svg version="1.1" xmlns="http://www.w3.org/2000/svg" xmlns:xlink="http://www.w3.org/1999/xlink" width="800" height="800"><defs/><g transform="scale(2,2)"><g id="background-9a794992"><rect fill="white" stroke="none" x="0" y="0" width="400" height="400" class="dcg-svg-background"/></g><g id="background-images-9a794992"/><g id="graphpaper-9a794992"><g id="axis-9a794992"><path fill="none" stroke="rgb(0,0,0)" class="dcg-svg-axis-line" paint-order="fill stroke markers" d=" M 200 3 L 200 400" stroke-opacity="0.9" stroke-miterlimit="10" stroke-width="1.5" stroke-dasharray=""/><g class="dcg-svg-axis-line"><path fill="rgb(0,0,0)" stroke="rgb(0,0,0)" class="dcg-svg-axis-line" paint-order="stroke fill markers" d=" M 200 1.5 L 203.10582854123024 13.09110991546882 L 196.89417145876976 13.09110991546882 L 200 1.5 L 203.10582854123024 13.09110991546882" stroke-opacity="0.9" stroke-linejoin="round" stroke-miterlimit="10" stroke-width="1.5" stroke-dasharray="" fill-opacity="0.9"/></g><path fill="none" stroke="rgb(0,0,0)" class="dcg-svg-axis-line" paint-order="fill stroke markers" d=" M 0 200 L 397 200" stroke-opacity="0.9" stroke-miterlimit="10" stroke-width="1.5" stroke-dasharray=""/><g class="dcg-svg-axis-line"><path fill="rgb(0,0,0)" stroke="rgb(0,0,0)" class="dcg-svg-axis-line" paint-order="stroke fill markers" d=" M 398.5 200 L 386.9088900845312 203.10582854123027 L 386.9088900845312 196.89417145876976 L 398.5 200 L 386.9088900845312 203.10582854123027" stroke-opacity="0.9" stroke-linejoin="round" stroke-miterlimit="10" stroke-width="1.5" stroke-dasharray="" fill-opacity="0.9"/></g><g><g><path fill="none" stroke="rgb(0,0,0)" class="dcg-svg-tickmark" paint-order="fill stroke markers" d="" stroke-opacity="0.9" stroke-miterlimit="2" stroke-width="1.5" stroke-dasharray=""/></g></g><g class="dcg-svg-axis-label"><text fill="none" stroke="#ffffff" font-family="Arial" font-size="17px" font-style="normal" font-weight="normal" text-decoration="normal" x="324.50390625" y="215" text-anchor="start" stroke-miterlimit="2" stroke-width="3" stroke-dasharray="">deltaVel</text><text fill="#000000" stroke="none" font-family="Arial" font-size="17px" font-style="normal" font-weight="normal" text-decoration="normal" x="324.50390625" y="215" text-anchor="start">deltaVel</text></g><g class="dcg-svg-axis-label" transform="translate(192,58.45458984375) rotate(-90,0,0)"><text fill="none" stroke="#ffffff" font-family="Arial" font-size="17px" font-style="normal" font-weight="normal" text-decoration="normal" x="0" y="0" text-anchor="start" stroke-miterlimit="2" stroke-width="3" stroke-dasharray="">Force</text><text fill="#000000" stroke="none" font-family="Arial" font-size="17px" font-style="normal" font-weight="normal" text-decoration="normal" x="0" y="0" text-anchor="start">Force</text></g></g></g><g id="expressions-9a794992"><path fill="#6042a6" stroke="none" paint-order="stroke fill markers" d="" fill-opacity="0.4"/><g><path fill="none" stroke="#6042a6" class="dcg-svg-curve" paint-order="fill stroke markers" d=" M -0.5 199.5 L -0.5 199.5 L 59.55859375 199.61132812500003 L 152.83333333333331 376.83333333333337 L 246.16666666666669 22.16666666666663 L 339.5390625 199.5 L 399.5 199.5" stroke-linecap="round" stroke-linejoin="round" stroke-miterlimit="10" stroke-width="2.5" stroke-opacity="0.7" stroke-dasharray=""/></g><path fill="#c74440" stroke="none" paint-order="stroke fill markers" d="" fill-opacity="0.4"/><g><path fill="none" stroke="#c74440" class="dcg-svg-curve" paint-order="fill stroke markers" d=" M -0.5 199.83738950180705 L -0.5 199.83738950180705 L 10.046875 200.23902397804054 L 17.95703125 200.7889544013745 L 24.5 201.5001390220466 L 30.06640625 202.363855488336 L 35.046875 203.4028348099708 L 39.5390625 204.61113387594162 L 43.73828125 206.02335037495553 L 47.64453125 207.6272324458811 L 51.35546875 209.45106780882958 L 54.96875 211.5469033154858 L 58.58203125 213.99757399128728 L 62.1953125 216.84264385834763 L 65.61328125 219.93252821277127 L 68.8359375 223.23034904555928 L 71.9609375 226.80905163234925 L 75.0859375 230.78363527327193 L 78.2109375 235.17160428174375 L 81.3359375 239.98634684279716 L 84.4609375 245.2361498644709 L 87.68359375 251.10791178252697 L 91.00390625 257.63790572438865 L 94.421875 264.8518256681259 L 98.03515625 272.9863230321994 L 102.0390625 282.5452440399074 L 106.62890625 294.078568540481 L 112.9765625 310.6664525911598 L 121.765625 333.5935729377133 L 125.76953125 343.4436555946831 L 129.08984375 351.06508711974135 L 131.921875 357.0455217343021 L 134.4609375 361.91214424559536 L 136.70703125 365.76596969693827 L 138.85546875 369.0074843900324 L 140.80859375 371.5401489176608 L 142.6640625 373.55124894175475 L 144.421875 375.0776396431871 L 146.1796875 376.2140019005474 L 147.7421875 376.8805994203065 L 149.20703125 377.19977058134367 L 150.57421875 377.221629607779 L 151.94140625 376.96924620860847 L 153.30859375 376.4357235125165 L 154.7734375 375.5450690252372 L 156.3359375 374.2239118373704 L 157.8984375 372.51294193756314 L 159.4609375 370.4066629156548 L 161.0234375 367.9010263318025 L 162.68359375 364.79839404333205 L 164.44140625 361.0175377895015 L 166.19921875 356.7279829177987 L 168.0546875 351.6524769434164 L 170.0078125 345.7106117707022 L 172.05859375 338.8242589472245 L 174.3046875 330.54449085063413 L 176.6484375 321.1173968552695 L 179.1875 310.04952073518484 L 181.921875 297.2122236349118 L 184.94921875 282.00560001019164 L 188.3671875 263.76619572988807 L 192.37109375 241.27160665181333 L 197.9375 208.74626394131167 L 207.703125 151.5953304850687 L 211.8046875 128.86597600163168 L 215.22265625 110.99278365782698 L 218.25 96.17524195762797 L 220.984375 83.73561348223143 L 223.5234375 73.07112371864554 L 225.96484375 63.68256432007388 L 228.2109375 55.83550094218276 L 230.359375 49.06604341770668 L 232.3125 43.55339186906724 L 234.16796875 38.89182714102833 L 236.0234375 34.79634069794622 L 237.78125 31.440401444782935 L 239.44140625 28.738205382354977 L 241.00390625 26.60706976668928 L 242.56640625 24.871539366088996 L 244.12890625 23.526206416236676 L 245.69140625 22.564276487483482 L 247.15625 22.003480794055804 L 248.5234375 21.770922692315366 L 249.890625 21.812089379896236 L 251.2578125 22.11940057969349 L 252.72265625 22.734707551144652 L 254.28515625 23.705330153894806 L 256.04296875 25.168145498059232 L 257.8984375 27.116018199684447 L 259.75390625 29.453322493576536 L 261.70703125 32.304957550606446 L 263.85546875 35.8675488520019 L 266.19921875 40.212859355509295 L 268.73828125 45.39570650174346 L 271.66796875 51.89705706373559 L 274.98828125 59.8061952465618 L 279.08984375 70.14594143400649 L 285.6328125 87.30170387598514 L 293.640625 108.16302947774454 L 298.328125 119.77780824502946 L 302.33203125 129.15010067782424 L 306.04296875 137.29931693403876 L 309.4609375 144.3022791016705 L 312.78125 150.61855236944442 L 316.00390625 156.2791581271954 L 319.12890625 161.32435966578717 L 322.25390625 165.93768584710594 L 325.37890625 170.12994010447642 L 328.50390625 173.91655987542765 L 331.7265625 177.41691185035486 L 335.046875 180.61882266025793 L 338.46484375 183.5160547583577 L 342.078125 186.17498752107358 L 345.7890625 188.51458635797894 L 349.5 190.49995772410975 L 353.40625 192.25243587605866 L 357.41015625 193.73643944618746 L 361.70703125 195.02866206883778 L 366.296875 196.12156677264 L 371.375 197.0491877880845 L 377.0390625 197.80963567618215 L 383.6796875 198.42593199176684 L 391.6875 198.89411445789958 L 399.5 199.16261049819295" stroke-linecap="round" stroke-linejoin="round" stroke-miterlimit="10" stroke-width="2.5" stroke-opacity="0.7" stroke-dasharray=""/></g></g></g></svg>